HIERARCHY
ROOT Hips
{
	OFFSET 0.00000 0.00000 0.00000
	CHANNELS 6 Xposition Yposition Zposition Zrotation Yrotation Xrotation 
	JOINT LHipJoint
	{
		OFFSET 0 0 0
		CHANNELS 3 Zrotation Yrotation Xrotation
		JOINT LeftHip
		{
			OFFSET 1.48831 -1.59570 0.95625
			CHANNELS 3 Zrotation Yrotation Xrotation
			JOINT LeftKnee
			{
				OFFSET 2.20856 -6.06797 0.00000
				CHANNELS 3 Zrotation Yrotation Xrotation
				JOINT LeftAnkle
				{
					OFFSET 2.62924 -7.22379 0.00000
					CHANNELS 3 Zrotation Yrotation Xrotation
					JOINT LeftToe
					{
						OFFSET 0.16802 -0.46163 2.41673
						CHANNELS 3 Zrotation Yrotation Xrotation
						End Site
						{
							OFFSET 0.00000 -0.00000 1.23760
						}
					}
				}
			}
		}
	}
	JOINT RHipJoint
	{
		OFFSET 0 0 0
		CHANNELS 3 Zrotation Yrotation Xrotation
		JOINT RightHip
		{
			OFFSET -1.56796 -1.59570 0.95625
			CHANNELS 3 Zrotation Yrotation Xrotation
			JOINT RightKnee
			{
				OFFSET -2.29239 -6.29829 0.00000
				CHANNELS 3 Zrotation Yrotation Xrotation
				JOINT RightAnkle
				{
					OFFSET -2.66963 -7.33475 0.00000
					CHANNELS 3 Zrotation Yrotation Xrotation
					JOINT RightToe
					{
						OFFSET -0.18185 -0.49964 2.34359
						CHANNELS 3 Zrotation Yrotation Xrotation
						End Site
						{
							OFFSET -0.00000 -0.00000 1.20477
						}
					}
				}
			}
		}
	}
	JOINT lowerback
	{
		OFFSET 0 0 0
		CHANNELS 3 Zrotation Yrotation Xrotation
		JOINT Chest
		{
			OFFSET 0.03505 2.15832 -0.34324
			CHANNELS 3 Zrotation Yrotation Xrotation
			JOINT Chest2
			{
				OFFSET -0.01089 2.17963 0.04689
				CHANNELS 3 Zrotation Yrotation Xrotation
				JOINT lowerneck
				{
					OFFSET 0 0 0
					CHANNELS 3 Zrotation Yrotation Xrotation
					JOINT Neck
					{
						OFFSET 0.04686 1.69404 0.22159
						CHANNELS 3 Zrotation Yrotation Xrotation
						JOINT Head
						{
							OFFSET 0.00265 1.69305 -0.01513
							CHANNELS 3 Zrotation Yrotation Xrotation
							End Site
							{
								OFFSET -0.00415 1.80215 -0.03034
							}
						}
					}
				}
				JOINT LeftCollar
				{
					OFFSET 0 0 0
					CHANNELS 3 Zrotation Yrotation Xrotation
					JOINT LeftShoulder
					{
						OFFSET 3.67184 1.11724 -0.19002
CHANNELS 3 Zrotation Xrotation Yrotation
						JOINT LeftElbow
						{
OFFSET 0 -5.177140 -0.000000
CHANNELS 3 Zrotation Xrotation Yrotation
							JOINT LeftWrist
							{
OFFSET 0 -3.436790 -0.000000
CHANNELS 3 Zrotation Xrotation Yrotation
								JOINT lhand
								{
									OFFSET 0 0 0
CHANNELS 3 Zrotation Xrotation Yrotation
									JOINT LFingers
									{
OFFSET 0 -0.573120 -0.000000
CHANNELS 3 Zrotation Xrotation Yrotation
										End Site
										{
OFFSET 0 -0.462060 -0.000000
										}
									}
								}
								JOINT LThumb
								{
OFFSET 0 0.000000 0.000000
CHANNELS 3 Zrotation Xrotation Yrotation
									End Site
									{
OFFSET 0 -0.469120 0.469120
									}
								}
							}
						}
					}
				}
				JOINT RightCollar
				{
					OFFSET 0 0 0
					CHANNELS 3 Zrotation Yrotation Xrotation
					JOINT RightShoulder
					{
						OFFSET -3.59596 0.95831 -0.26050
CHANNELS 3 Zrotation Xrotation Yrotation
						JOINT RightElbow
						{
OFFSET 0 -5.239080 -0.000000
CHANNELS 3 Zrotation Xrotation Yrotation
							JOINT RightWrist
							{
OFFSET 0 -3.464850 -0.000000
CHANNELS 3 Zrotation Xrotation Yrotation
								JOINT rhand
								{
									OFFSET 0 0 0
CHANNELS 3 Zrotation Xrotation Yrotation
									JOINT RFingers
									{
OFFSET 0 -0.608750 -0.000000
CHANNELS 3 Zrotation Xrotation Yrotation
										End Site
										{
OFFSET 0 -0.490790 -0.000000
										}
									}
								}
								JOINT RThumb
								{
OFFSET 0 0.000000 0.000000
CHANNELS 3 Zrotation Xrotation Yrotation
									End Site
									{
OFFSET 0 -0.498290 0.498290
									}
								}
							}
						}
					}
				}
			}
		}
	}
}
MOTION
Frames: 5
Frame Time: 0.008333333333333333
44.346900 15.907600 -17.668200 -85.292500 -85.927500 83.517200 0.000000 0.000000 0.000000 -14.363200 1.539400 0.047900 1.202000 6.955800 19.584600 1.439600 10.135400 -28.350100 0.013400 0.748100 2.056100 0.000000 0.000000 0.000000 20.827100 3.735000 -6.922600 -2.843400 -10.437100 30.404100 -1.533300 -7.037500 -26.859100 -0.028900 1.097600 -3.017300 1.265500 -1.091200 -0.677800 0.878500 -1.548800 2.974500 0.137200 -0.764900 3.427200 -3.099400 -5.178300 -0.898200 11.673100 -6.853000 -3.322600 4.347200 -3.558300 -0.339300 0.000000 -0.000000 0.000000 -1.006500 -4.274000 -8.095100 11.287000 -18.726800 1.867000 16.538900 -20.241000 -5.900800 0.000000 0.000000 0.000000 -7.125000 0.000000 0.000000 -8.529300 36.021800 -1.899600 0.000000 -0.000000 0.000000 -0.417000 -2.927400 11.972500 -12.861400 -21.083800 -2.403200 -17.282100 8.027800 4.306300 0.000000 0.000000 0.000000 7.125000 0.000000 -0.000000 7.715100 34.409100 2.020700
44.343478 15.907011 -17.668078 -84.958671 -85.964745 83.197995 0.000000 0.000000 0.000000 -14.413868 1.541848 0.064042 1.193600 6.932332 19.515231 1.406552 10.317165 -28.260277 0.008533 0.593701 1.631420 0.000000 0.000000 0.000000 20.780010 3.741490 -6.942859 -2.855801 -10.457868 30.472548 -1.566489 -6.851233 -26.979046 -0.020456 0.923845 -2.539280 1.208876 -1.093089 -0.704069 0.856233 -1.548588 2.954621 0.145667 -0.765822 3.422233 -3.097944 -5.178811 -0.936813 11.680044 -6.863834 -3.201472 4.345022 -3.558967 -0.292242 0.000000 0.000000 0.000000 -0.984499 -4.250710 -8.246152 11.310523 -18.762691 1.874556 16.581790 -20.316172 -5.908696 0.000000 0.000000 0.000000 -7.125000 0.000000 0.000000 -8.494877 36.032085 -1.889634 0.000000 0.000000 0.000000 -0.432123 -2.989869 11.882820 -12.797599 -20.989954 -2.380277 -17.413010 8.095691 4.105759 0.000000 0.000000 0.000000 7.125000 0.000000 0.000000 7.585346 34.206348 2.023877
44.340100 15.905333 -17.668556 -85.640357 -85.962555 83.914326 0.000000 0.000000 0.000000 -14.417634 1.598668 -0.017493 1.193634 6.932645 19.515924 1.339142 10.707965 -28.094542 0.001122 0.212883 0.584898 0.000000 0.000000 0.000000 20.791890 3.803407 -6.991002 -2.864678 -10.472679 30.521469 -1.567133 -6.868602 -26.994356 -0.021611 0.949013 -2.608517 1.201622 -1.082365 -0.743248 0.848110 -1.533198 2.920486 0.141499 -0.757866 3.409043 -3.095934 -5.175388 -1.003864 11.674466 -6.874490 -3.017545 4.335855 -3.556655 -0.220369 0.000000 0.000000 0.000000 -0.962742 -4.198307 -8.377420 11.332367 -18.795945 1.881622 16.560052 -20.441528 -5.789004 0.000000 0.000000 0.000000 -7.125000 0.000000 0.000000 -8.496457 35.907648 -1.916013 0.000000 0.000000 0.000000 -0.445245 -3.001410 11.899504 -12.807647 -21.004682 -2.383890 -17.316891 8.100976 4.282770 0.000000 0.000000 0.000000 7.125000 0.000000 0.000000 7.684009 34.386148 2.016744
44.336633 15.904633 -17.668733 -85.983633 -85.952331 84.265733 0.000000 0.000000 0.000000 -14.411497 1.579833 -0.014266 1.195967 6.939101 19.535203 1.341734 10.736898 -28.135702 0.001000 0.202633 0.556865 0.000000 0.000000 0.000000 20.814104 3.830233 -6.994033 -2.866500 -10.475700 30.531200 -1.559965 -6.945881 -26.991865 -0.024467 1.009945 -2.776099 1.206834 -1.082801 -0.763369 0.837833 -1.532802 2.891030 0.128032 -0.757234 3.389564 -3.082565 -5.172300 -1.083445 11.657465 -6.889269 -2.790767 4.319231 -3.554666 -0.133054 0.000000 0.000000 0.000000 -0.933096 -4.178331 -8.425506 11.310529 -18.762694 1.874632 16.540503 -20.434362 -5.758004 0.000000 0.000000 0.000000 -7.125000 0.000000 0.000000 -8.508498 35.874671 -1.925699 0.000000 0.000000 0.000000 -0.448634 -2.976066 11.920674 -12.834841 -21.044811 -2.393669 -17.224809 8.036612 4.361806 0.000000 0.000000 0.000000 7.125000 0.000000 0.000000 7.768458 34.464273 2.024399
44.333588 15.904500 -17.668900 -86.041222 -85.929408 84.323856 0.000000 0.000000 0.000000 -14.386030 1.568621 -0.007720 1.198356 6.945668 19.554603 1.346879 10.726221 -28.163130 0.001000 0.204601 0.562168 0.000000 0.000000 0.000000 20.846582 3.840203 -6.977485 -2.865266 -10.473733 30.524787 -1.556900 -6.984713 -26.993934 -0.025811 1.037535 -2.852038 1.214613 -1.092924 -0.779981 0.838378 -1.545803 2.862415 0.123776 -0.763479 3.369139 -3.087068 -5.171033 -1.173707 11.648187 -6.906881 -2.559366 4.308498 -3.553444 -0.041182 0.000000 0.000000 0.000000 -0.916853 -4.145669 -8.447139 11.289928 -18.731314 1.867954 16.572884 -20.398455 -5.807410 0.000000 0.000000 0.000000 -7.125000 0.000000 0.000000 -8.488374 35.927311 -1.910041 0.000000 0.000000 0.000000 -0.461480 -2.974483 11.947489 -12.852421 -21.070543 -2.399944 -17.168378 7.934209 4.378690 0.000000 0.000000 0.000000 7.125000 0.000000 0.000000 7.816654 34.479478 2.034247
